<svg width="156" height="112" viewBox="0 0 156 112" fill="none" xmlns="http://www.w3.org/2000/svg">
<path d="M145.93 111.1H9.84C4.63 111.1 0.410004 106.88 0.410004 101.67V9.44001C0.410004 4.23001 4.63 0.0100098 9.84 0.0100098H145.93C151.14 0.0100098 155.36 4.23001 155.36 9.44001V101.67C155.36 106.88 151.14 111.1 145.93 111.1Z" fill="#FAB51C"/>
<path d="M34.0799 73.2902C34.0799 73.7832 34.0584 74.2869 34.0156 74.8014H23.2121C23.3407 76.6663 23.8123 78.0381 24.6269 78.917C25.4414 79.7958 26.4917 80.2352 27.7779 80.2352C28.5924 80.2352 29.3426 80.1174 30.0286 79.8816C30.7145 79.6458 31.4326 79.2707 32.1828 78.7562L33.469 80.5246C31.6684 81.9394 29.6963 82.6467 27.5528 82.6467C25.1949 82.6467 23.3515 81.8751 22.0225 80.3317C20.7149 78.7884 20.0611 76.6663 20.0611 73.9654C20.0611 72.2077 20.3398 70.6536 20.8971 69.3032C21.4759 67.9313 22.2904 66.8596 23.3407 66.0879C24.4125 65.3162 25.6665 64.9304 27.1026 64.9304C29.3534 64.9304 31.0789 65.6699 32.2793 67.1489C33.4797 68.628 34.0799 70.6751 34.0799 73.2902ZM31.1539 72.422C31.1539 70.7501 30.8217 69.4747 30.1572 68.5958C29.4927 67.717 28.496 67.2775 27.167 67.2775C24.7448 67.2775 23.4265 69.0567 23.2121 72.615H31.1539V72.422ZM37.6785 73.4509V70.943H46.7778V73.4509H37.6785ZM68.7809 64.9304C70.1742 64.9304 71.2888 65.402 72.1248 66.3451C72.9608 67.2668 73.3787 68.5208 73.3787 70.107V82.2609H70.4207V70.525C70.4207 68.3386 69.6276 67.2454 68.0413 67.2454C67.2054 67.2454 66.498 67.4919 65.9192 67.9849C65.3405 68.4565 64.7188 69.2067 64.0543 70.2356V82.2609H61.0963V70.525C61.0963 68.3386 60.3032 67.2454 58.7169 67.2454C57.8595 67.2454 57.1414 67.4919 56.5627 67.9849C55.9839 68.4779 55.373 69.2282 54.7299 70.2356V82.2609H51.7719V65.3162H54.312L54.5692 67.792C55.8339 65.8842 57.463 64.9304 59.4565 64.9304C60.5068 64.9304 61.3964 65.1983 62.1252 65.7342C62.8754 66.2701 63.4113 67.0203 63.7328 67.9849C64.3973 66.9989 65.1261 66.2487 65.9192 65.7342C66.7338 65.1983 67.6876 64.9304 68.7809 64.9304ZM85.7069 64.9304C88.0863 64.9304 89.9297 65.7235 91.2373 67.3097C92.5663 68.8959 93.2308 71.0502 93.2308 73.7725C93.2308 75.5302 92.9307 77.0842 92.3305 78.4347C91.7303 79.7637 90.8622 80.8033 89.7261 81.5535C88.59 82.2823 87.2396 82.6467 85.6748 82.6467C83.2955 82.6467 81.4413 81.8536 80.1123 80.2674C78.7833 78.6812 78.1188 76.5269 78.1188 73.8046C78.1188 72.0469 78.4189 70.5036 79.0191 69.1746C79.6193 67.8242 80.4874 66.7845 81.6235 66.0557C82.7596 65.3055 84.1207 64.9304 85.7069 64.9304ZM85.7069 67.3097C82.7703 67.3097 81.302 69.4747 81.302 73.8046C81.302 78.1131 82.7596 80.2674 85.6748 80.2674C88.59 80.2674 90.0476 78.1024 90.0476 73.7725C90.0476 69.464 88.6007 67.3097 85.7069 67.3097ZM88.2149 56.5063L89.5332 58.982L82.7167 61.7472L81.8164 60.1717L88.2149 56.5063ZM110.435 65.3162L104.68 82.2609H101.111L95.2589 65.3162H98.4742L102.911 79.6243L107.316 65.3162H110.435ZM126.489 73.2902C126.489 73.7832 126.467 74.2869 126.424 74.8014H115.621C115.749 76.6663 116.221 78.0381 117.036 78.917C117.85 79.7958 118.901 80.2352 120.187 80.2352C121.001 80.2352 121.751 80.1174 122.437 79.8816C123.123 79.6458 123.841 79.2707 124.592 78.7562L125.878 80.5246C124.077 81.9394 122.105 82.6467 119.962 82.6467C117.604 82.6467 115.76 81.8751 114.431 80.3317C113.124 78.7884 112.47 76.6663 112.47 73.9654C112.47 72.2077 112.749 70.6536 113.306 69.3032C113.885 67.9313 114.699 66.8596 115.749 66.0879C116.821 65.3162 118.075 64.9304 119.511 64.9304C121.762 64.9304 123.488 65.6699 124.688 67.1489C125.888 68.628 126.489 70.6751 126.489 73.2902ZM123.563 72.422C123.563 70.7501 123.23 69.4747 122.566 68.5958C121.901 67.717 120.905 67.2775 119.576 67.2775C117.154 67.2775 115.835 69.0567 115.621 72.615H123.563V72.422ZM134.589 82.6467C133.495 82.6467 132.627 82.3252 131.984 81.6821C131.363 81.0176 131.052 80.0959 131.052 78.917V58.4998L134.01 58.1461V78.8527C134.01 79.3242 134.085 79.6672 134.235 79.8816C134.407 80.0959 134.685 80.2031 135.071 80.2031C135.478 80.2031 135.843 80.1388 136.164 80.0102L136.936 82.068C136.229 82.4538 135.446 82.6467 134.589 82.6467Z" fill="white"/>
<path d="M104.38 38.56C104.38 40.71 104.55 42.88 104.32 45.01C104.22 45.96 103.73 46.87 103.31 47.79C103.06 48.33 102.87 48.89 102.71 49.46C102.42 50.53 102.45 51.75 101.83 52.67C101.66 52.92 101.32 53.04 100.97 53.2C100.15 53.58 99.18 53.58 98.45 52.32C97.44 49 95.01 49.24 92.41 49.25C82.14 49.31 71.87 49.32 61.59 49.24C59.69 49.22 58.39 49.57 57.84 51.56C57.37 53.29 56.05 53.87 54.42 53.42C52.53 52.9 53.27 51.55 53.59 50.32C53.69 49.93 53.57 49.2 53.3 49.04C50.96 47.64 51.41 45.38 51.4 43.26C51.38 39.35 51.24 35.42 51.48 31.53C51.57 30.12 52.21 28.24 53.26 27.5C54.88 26.36 55.21 25.14 55.24 23.38C55.33 18.1 57.98 15.34 63.2 15.37C68.05 15.4 72.95 15.33 77.8 15.33C82.46 15.33 87.07 15.41 91.73 15.33C97.89 15.23 100.39 17.81 100.6 23.97C100.63 24.91 100.97 26.29 101.63 26.67C103.94 28.01 104.46 29.97 104.4 32.37C104.34 34.45 104.38 36.5 104.38 38.56ZM79.4 33.65H93.86C94.16 33.65 94.44 33.47 94.55 33.19C95.45 30.91 95.82 28.44 97.22 27.48C99.93 25.62 99.16 23.41 98.74 21.33C98.25 18.86 96.42 17.14 93.8 17.03C89.5 16.85 85.19 16.87 80.9 17.06C80.12 17.09 78.79 18.34 78.76 19.07C78.58 23.61 78.65 28.15 78.66 32.91C78.66 33.32 78.99 33.65 79.4 33.65ZM76.23 33.69C76.64 33.69 76.97 33.35 76.97 32.94C76.98 28.14 77.04 23.59 76.88 19.05C76.86 18.33 75.71 17.08 75.05 17.05C70.55 16.88 66.03 16.75 61.54 17.06C57.81 17.32 54.83 24.4 57.47 26.4C60.01 28.32 60.52 30.13 60.49 32.94C60.49 33.35 60.82 33.69 61.23 33.69H76.23ZM94.95 46.77V40.13C94.95 39.72 94.62 39.39 94.21 39.39H61.38C60.97 39.39 60.64 39.72 60.64 40.13V46.77C60.64 47.18 60.97 47.51 61.38 47.51H94.21C94.62 47.51 94.95 47.18 94.95 46.77ZM96.84 46.91C96.84 47.31 97.15 47.63 97.55 47.65C98.64 47.71 99.58 47.86 100.32 47.55C101.25 47.17 102.56 46.16 102.59 45.39C102.79 40.63 102.71 35.85 102.66 31.08C102.64 29.24 101.57 27.82 99.81 28.25C98.66 28.53 97.03 30.08 96.98 31.13C96.7 36.23 96.83 41.36 96.84 46.91ZM58.16 47.64C58.56 47.62 58.87 47.29 58.87 46.9C58.88 41.36 59 36.12 58.74 30.89C58.69 29.92 57.07 28.48 55.96 28.23C54.14 27.82 53.08 29.28 53.05 31.07C52.97 35.87 52.93 40.67 53.12 45.46C53.15 46.21 54.36 47.2 55.23 47.54C56.02 47.84 56.97 47.69 58.16 47.64ZM77.89 35.4C72.81 35.4 67.74 35.35 62.66 35.45C62.27 35.46 61.88 35.68 61.5 35.95C61.05 36.27 61.09 36.95 61.57 37.22C61.92 37.41 62.27 37.56 62.62 37.56C72.77 37.62 82.92 37.62 93.08 37.54C93.46 37.54 93.85 37.31 94.23 37.05C94.68 36.73 94.64 36.05 94.16 35.79C93.81 35.6 93.47 35.45 93.12 35.44C88.04 35.35 82.97 35.39 77.89 35.4Z" fill="white"/>
</svg>
