<?xml version="1.0" encoding="utf-8"?>
<!-- Generator: Adobe Illustrator 24.1.2, SVG Export Plug-In . SVG Version: 6.00 Build 0)  -->
<svg version="1.1" id="Layer_1" xmlns="http://www.w3.org/2000/svg" xmlns:xlink="http://www.w3.org/1999/xlink" x="0px" y="0px"
	 viewBox="0 0 246.1 71.55" style="enable-background:new 0 0 246.1 71.55;" xml:space="preserve">
<style type="text/css">
	.st0{fill:#FFFFFF;}
	.st1{fill:#FAB51C;}
	.st2{fill:#3C3C3B;}
	.st3{font-family:'FiraSans-Regular';}
	.st4{font-size:37.1341px;}
</style>
<text transform="matrix(1 0 0 1 100.5088 44.9026)" class="st2 st3 st4">e-móvel</text>
<g>
	<path class="st1" d="M76.55,70.83H11.92c-5.21,0-9.43-4.22-9.43-9.43V10.15c0-5.21,4.22-9.43,9.43-9.43h64.63
		c5.21,0,9.43,4.22,9.43,9.43V61.4C85.97,66.61,81.75,70.83,76.55,70.83z"/>
	<g>
		<g>
			<path class="st0" d="M74.83,40.51c0,2.49,0.19,4.99-0.07,7.45c-0.12,1.1-0.68,2.15-1.17,3.21c-0.29,0.62-0.51,1.27-0.69,1.93
				c-0.33,1.24-0.3,2.65-1.02,3.71c-0.19,0.29-0.59,0.42-1,0.61c-0.94,0.43-2.06,0.43-2.91-1.02c-1.16-3.83-3.98-3.56-6.97-3.54
				c-11.86,0.07-23.73,0.09-35.59-0.01c-2.19-0.02-3.7,0.38-4.33,2.68c-0.55,2-2.06,2.67-3.95,2.15c-2.18-0.6-1.32-2.16-0.96-3.58
				c0.12-0.45-0.03-1.3-0.34-1.48c-2.7-1.61-2.18-4.23-2.19-6.67c-0.02-4.52-0.18-9.05,0.09-13.55c0.1-1.63,0.84-3.8,2.05-4.65
				c1.88-1.32,2.26-2.73,2.29-4.75c0.1-6.1,3.17-9.28,9.19-9.25c5.61,0.04,11.26-0.04,16.87-0.04c5.38,0,10.71,0.09,16.09,0
				c7.12-0.12,10,2.86,10.25,9.98c0.04,1.08,0.43,2.68,1.19,3.12c2.67,1.54,3.27,3.81,3.2,6.58C74.78,35.76,74.83,38.13,74.83,40.51
				z M45.99,34.84h16.7c0.35,0,0.67-0.21,0.8-0.53c1.04-2.64,1.47-5.48,3.09-6.6c3.13-2.15,2.24-4.69,1.76-7.11
				c-0.57-2.85-2.68-4.84-5.7-4.97c-4.96-0.21-9.94-0.19-14.9,0.03c-0.9,0.04-2.44,1.48-2.48,2.32c-0.21,5.24-0.13,10.49-0.12,15.99
				C45.13,34.45,45.51,34.84,45.99,34.84z M42.32,34.89c0.47,0,0.86-0.39,0.86-0.86c0.01-5.54,0.08-10.8-0.1-16.04
				c-0.03-0.83-1.35-2.28-2.11-2.3c-5.2-0.19-10.42-0.35-15.6,0.01c-4.31,0.3-7.75,8.47-4.7,10.78c2.93,2.22,3.53,4.31,3.49,7.55
				c-0.01,0.47,0.38,0.86,0.86,0.86H42.32z M63.94,49.99v-7.67c0-0.47-0.38-0.86-0.86-0.86H25.17c-0.47,0-0.86,0.38-0.86,0.86v7.67
				c0,0.47,0.38,0.86,0.86,0.86h37.92C63.56,50.85,63.94,50.46,63.94,49.99z M66.13,50.15c0,0.46,0.36,0.83,0.82,0.86
				c1.26,0.07,2.34,0.24,3.2-0.12c1.08-0.44,2.59-1.6,2.63-2.5c0.23-5.5,0.13-11.02,0.08-16.53c-0.02-2.12-1.26-3.77-3.29-3.27
				c-1.33,0.33-3.21,2.11-3.27,3.32C65.96,37.81,66.11,43.74,66.13,50.15z M21.45,50.99c0.46-0.02,0.82-0.4,0.82-0.86
				c0.01-6.4,0.15-12.45-0.15-18.49c-0.06-1.12-1.93-2.78-3.21-3.07c-2.11-0.47-3.33,1.22-3.36,3.29
				c-0.09,5.54-0.14,11.09,0.08,16.62c0.03,0.86,1.43,2.01,2.44,2.4C18.97,51.23,20.08,51.06,21.45,50.99z M44.24,36.85
				c-5.86,0-11.73-0.06-17.59,0.06c-0.45,0.01-0.9,0.27-1.34,0.58c-0.52,0.36-0.48,1.16,0.08,1.46c0.4,0.22,0.81,0.39,1.22,0.39
				c11.72,0.07,23.45,0.07,35.17-0.02c0.44,0,0.89-0.26,1.33-0.57c0.52-0.36,0.47-1.15-0.08-1.46c-0.4-0.22-0.8-0.4-1.2-0.4
				C55.96,36.8,50.1,36.84,44.24,36.85z"/>
		</g>
	</g>
</g>
</svg>
