<?xml version="1.0" encoding="utf-8"?>
<!-- Generator: Adobe Illustrator 24.1.2, SVG Export Plug-In . SVG Version: 6.00 Build 0)  -->
<svg version="1.1" id="Layer_1" xmlns="http://www.w3.org/2000/svg" xmlns:xlink="http://www.w3.org/1999/xlink" x="0px" y="0px"
	 viewBox="0 0 157.78 113.11" style="enable-background:new 0 0 157.78 113.11;" xml:space="preserve">
<style type="text/css">
	.st0{fill:#FFFFFF;}
	.st1{fill:#FAB51C;}
	.st2{font-family:'FiraSans-Regular';}
	.st3{font-size:32.1531px;}
</style>
<g>
	<path class="st1" d="M146.93,112.1H10.84c-5.21,0-9.43-4.22-9.43-9.43V10.44c0-5.21,4.22-9.43,9.43-9.43h136.09
		c5.21,0,9.43,4.22,9.43,9.43v92.23C156.36,107.88,152.14,112.1,146.93,112.1z"/>
	<g>
		<text transform="matrix(1 0 0 1 19.2284 85.414)" class="st0 st2 st3">e-móvel</text>
		<g>
			<g>
				<path class="st0" d="M105.38,39.56c0,2.15,0.17,4.32-0.06,6.45c-0.1,0.95-0.59,1.86-1.01,2.78c-0.25,0.54-0.44,1.1-0.6,1.67
					c-0.29,1.07-0.26,2.29-0.88,3.21c-0.17,0.25-0.51,0.37-0.86,0.53c-0.82,0.38-1.79,0.38-2.52-0.88
					c-1.01-3.32-3.44-3.08-6.04-3.07c-10.27,0.06-20.54,0.07-30.82-0.01c-1.9-0.02-3.2,0.33-3.75,2.32
					c-0.47,1.73-1.79,2.31-3.42,1.86c-1.89-0.52-1.15-1.87-0.83-3.1c0.1-0.39-0.02-1.12-0.29-1.28c-2.34-1.4-1.89-3.66-1.9-5.78
					c-0.02-3.91-0.16-7.84,0.08-11.73c0.09-1.41,0.73-3.29,1.78-4.03c1.62-1.14,1.95-2.36,1.98-4.12c0.09-5.28,2.74-8.04,7.96-8.01
					c4.85,0.03,9.75-0.04,14.6-0.04c4.66,0,9.27,0.08,13.93,0c6.16-0.1,8.66,2.48,8.87,8.64c0.03,0.94,0.37,2.32,1.03,2.7
					c2.31,1.34,2.83,3.3,2.77,5.7C105.34,35.45,105.38,37.5,105.38,39.56z M80.4,34.65h14.46c0.3,0,0.58-0.18,0.69-0.46
					c0.9-2.28,1.27-4.75,2.67-5.71c2.71-1.86,1.94-4.07,1.52-6.15c-0.49-2.47-2.32-4.19-4.94-4.3c-4.3-0.18-8.61-0.16-12.9,0.03
					c-0.78,0.03-2.11,1.28-2.14,2.01c-0.18,4.54-0.11,9.08-0.1,13.84C79.66,34.32,79.99,34.65,80.4,34.65z M77.23,34.69
					c0.41,0,0.74-0.34,0.74-0.75c0.01-4.8,0.07-9.35-0.09-13.89c-0.02-0.72-1.17-1.97-1.83-2c-4.5-0.17-9.02-0.3-13.51,0.01
					c-3.73,0.26-6.71,7.34-4.07,9.34c2.54,1.92,3.05,3.73,3.02,6.54c0,0.41,0.33,0.75,0.74,0.75H77.23z M95.95,47.77v-6.64
					c0-0.41-0.33-0.74-0.74-0.74H62.38c-0.41,0-0.74,0.33-0.74,0.74v6.64c0,0.41,0.33,0.74,0.74,0.74h32.83
					C95.62,48.51,95.95,48.18,95.95,47.77z M97.84,47.91c0,0.4,0.31,0.72,0.71,0.74c1.09,0.06,2.03,0.21,2.77-0.1
					c0.93-0.38,2.24-1.39,2.27-2.16c0.2-4.76,0.12-9.54,0.07-14.31c-0.02-1.84-1.09-3.26-2.85-2.83c-1.15,0.28-2.78,1.83-2.83,2.88
					C97.7,37.23,97.83,42.36,97.84,47.91z M59.16,48.64c0.4-0.02,0.71-0.35,0.71-0.74c0.01-5.54,0.13-10.78-0.13-16.01
					c-0.05-0.97-1.67-2.41-2.78-2.66c-1.82-0.41-2.88,1.05-2.91,2.84c-0.08,4.8-0.12,9.6,0.07,14.39c0.03,0.75,1.24,1.74,2.11,2.08
					C57.02,48.84,57.97,48.69,59.16,48.64z M78.89,36.4c-5.08,0-10.15-0.05-15.23,0.05c-0.39,0.01-0.78,0.23-1.16,0.5
					c-0.45,0.32-0.41,1,0.07,1.27c0.35,0.19,0.7,0.34,1.05,0.34c10.15,0.06,20.3,0.06,30.46-0.02c0.38,0,0.77-0.23,1.15-0.49
					c0.45-0.32,0.41-1-0.07-1.26c-0.35-0.19-0.69-0.34-1.04-0.35C89.04,36.35,83.97,36.39,78.89,36.4z"/>
			</g>
		</g>
	</g>
</g>
</svg>
