<svg width="166" height="165" viewBox="0 0 166 165" fill="none" xmlns="http://www.w3.org/2000/svg">
<path d="M131.417 20.625H34.5833C26.9434 20.625 20.75 26.7811 20.75 34.375V130.625C20.75 138.219 26.9434 144.375 34.5833 144.375H131.417C139.057 144.375 145.25 138.219 145.25 130.625V34.375C145.25 26.7811 139.057 20.625 131.417 20.625Z" stroke="#565656" stroke-width="9" stroke-linecap="round" stroke-linejoin="round"/>
<path d="M58.7916 68.75C64.5216 68.75 69.1666 64.1329 69.1666 58.4375C69.1666 52.7421 64.5216 48.125 58.7916 48.125C53.0617 48.125 48.4166 52.7421 48.4166 58.4375C48.4166 64.1329 53.0617 68.75 58.7916 68.75Z" stroke="#565656" stroke-width="9" stroke-linecap="round" stroke-linejoin="round"/>
<path d="M145.25 103.125L110.667 68.75L34.5834 144.375" stroke="#565656" stroke-width="9" stroke-linecap="round" stroke-linejoin="round"/>
</svg>
